solid csg.js
facet normal -1 0 0
outer loop
vertex 0 0.2666666666666666 0.05333333333333334
vertex 0 0.2666666666666666 0.1466666666666667
vertex 0 5.733333333333333 0.1466666666666667
endloop
endfacet
facet normal -1 0 0
outer loop
vertex 0 0.2666666666666666 0.05333333333333334
vertex 0 5.733333333333333 0.1466666666666667
vertex 0 5.733333333333333 0.05333333333333334
endloop
endfacet
facet normal 1 0 0
outer loop
vertex 1 0.2666666666666666 0.05333333333333334
vertex 1 5.733333333333333 0.05333333333333334
vertex 1 5.733333333333333 0.1466666666666667
endloop
endfacet
facet normal 1 0 0
outer loop
vertex 1 0.2666666666666666 0.05333333333333334
vertex 1 5.733333333333333 0.1466666666666667
vertex 1 0.2666666666666666 0.1466666666666667
endloop
endfacet
facet normal 0 -1 0
outer loop
vertex 0.26666666666666666 0 0.05333333333333334
vertex 0.7333333333333334 0 0.05333333333333334
vertex 0.7333333333333334 4.440892098500626e-16 0.1466666666666667
endloop
endfacet
facet normal 0 -1 0
outer loop
vertex 0.26666666666666666 0 0.05333333333333334
vertex 0.7333333333333334 4.440892098500626e-16 0.1466666666666667
vertex 0.26666666666666666 0 0.1466666666666667
endloop
endfacet
facet normal 0 1 0
outer loop
vertex 0.7333333333333334 6 0.1466666666666667
vertex 0.7333333333333334 6 0.05333333333333334
vertex 0.26666666666666666 6 0.05333333333333334
endloop
endfacet
facet normal 0 1 0
outer loop
vertex 0.7333333333333334 6 0.1466666666666667
vertex 0.26666666666666666 6 0.05333333333333334
vertex 0.26666666666666666 6 0.1466666666666667
endloop
endfacet
facet normal 0 1 0
outer loop
vertex 0.9500000000000001 6 0
vertex 0.9500000000000001 6 -1
vertex 0.05 6 -1
endloop
endfacet
facet normal 0 1 0
outer loop
vertex 0.9500000000000001 6 0
vertex 0.05 6 -1
vertex 0.05 6 0
endloop
endfacet
facet normal 0 0 1
outer loop
vertex 0.26666666666666666 0.2666666666666666 0.2
vertex 0.7333333333333334 0.2666666666666666 0.2
vertex 0.7333333333333334 5.733333333333333 0.2
endloop
endfacet
facet normal 0 0 1
outer loop
vertex 0.26666666666666666 0.2666666666666666 0.2
vertex 0.7333333333333334 5.733333333333333 0.2
vertex 0.26666666666666666 5.733333333333333 0.2
endloop
endfacet
facet normal 0.17725251713935508 0.4279254308425999 0.8862625856967775
outer loop
vertex 0.7333333333333333 5.921895141649746 0.1843790283299492
vertex 0.8666666666666667 5.866666666666667 0.1843790283299492
vertex 0.921895141649746 5.921895141649746 0.1466666666666667
endloop
endfacet
facet normal 0.17725251713935508 0.4279254308425999 0.8862625856967775
outer loop
vertex 0.7333333333333333 5.921895141649746 0.1843790283299492
vertex 0.921895141649746 5.921895141649746 0.1466666666666667
vertex 0.7333333333333334 6 0.1466666666666667
endloop
endfacet
facet normal 0.03417744986383457 0.08251166298859548 0.9960038792051272
outer loop
vertex 0.7333333333333334 5.733333333333333 0.2
vertex 0.8666666666666667 5.866666666666667 0.1843790283299492
vertex 0.7333333333333333 5.921895141649746 0.1843790283299492
endloop
endfacet
facet normal 0.42792543084260126 0.1772525171393554 0.8862625856967769
outer loop
vertex 0.8666666666666667 5.866666666666667 0.1843790283299492
vertex 0.9218951416497461 5.733333333333333 0.1843790283299492
vertex 1 5.733333333333333 0.1466666666666667
endloop
endfacet
facet normal 0.42792543084260126 0.1772525171393554 0.8862625856967769
outer loop
vertex 0.8666666666666667 5.866666666666667 0.1843790283299492
vertex 1 5.733333333333333 0.1466666666666667
vertex 0.921895141649746 5.921895141649746 0.1466666666666667
endloop
endfacet
facet normal 0.08251166298859554 0.03417744986383446 0.9960038792051272
outer loop
vertex 0.7333333333333334 5.733333333333333 0.2
vertex 0.9218951416497461 5.733333333333333 0.1843790283299492
vertex 0.8666666666666667 5.866666666666667 0.1843790283299492
endloop
endfacet
facet normal 0.42792543084260154 -0.17725251713935536 0.8862625856967766
outer loop
vertex 0.9218951416497461 0.2666666666666666 0.1843790283299492
vertex 0.8666666666666667 0.1333333333333333 0.1843790283299492
vertex 0.9218951416497461 0.07810485835025416 0.1466666666666667
endloop
endfacet
facet normal 0.42792543084260154 -0.17725251713935536 0.8862625856967766
outer loop
vertex 0.9218951416497461 0.2666666666666666 0.1843790283299492
vertex 0.9218951416497461 0.07810485835025416 0.1466666666666667
vertex 1 0.2666666666666666 0.1466666666666667
endloop
endfacet
facet normal 0.08251166298859555 -0.034177449863834454 0.9960038792051272
outer loop
vertex 0.7333333333333334 0.2666666666666666 0.2
vertex 0.8666666666666667 0.1333333333333333 0.1843790283299492
vertex 0.9218951416497461 0.2666666666666666 0.1843790283299492
endloop
endfacet
facet normal 0.17725251713935666 -0.42792543084260226 0.8862625856967761
outer loop
vertex 0.8666666666666667 0.1333333333333333 0.1843790283299492
vertex 0.7333333333333334 0.07810485835025371 0.1843790283299492
vertex 0.7333333333333334 4.440892098500626e-16 0.1466666666666667
endloop
endfacet
facet normal 0.17725251713935666 -0.42792543084260226 0.8862625856967761
outer loop
vertex 0.8666666666666667 0.1333333333333333 0.1843790283299492
vertex 0.7333333333333334 4.440892098500626e-16 0.1466666666666667
vertex 0.9218951416497461 0.07810485835025416 0.1466666666666667
endloop
endfacet
facet normal 0.034177449863834544 -0.08251166298859551 0.9960038792051272
outer loop
vertex 0.7333333333333334 0.2666666666666666 0.2
vertex 0.7333333333333334 0.07810485835025371 0.1843790283299492
vertex 0.8666666666666667 0.1333333333333333 0.1843790283299492
endloop
endfacet
facet normal -0.17725251713935544 -0.42792543084259993 0.8862625856967773
outer loop
vertex 0.26666666666666666 0.07810485835025371 0.1843790283299492
vertex 0.1333333333333333 0.1333333333333333 0.1843790283299492
vertex 0.07810485835025405 0.07810485835025371 0.1466666666666667
endloop
endfacet
facet normal -0.17725251713935544 -0.42792543084259993 0.8862625856967773
outer loop
vertex 0.26666666666666666 0.07810485835025371 0.1843790283299492
vertex 0.07810485835025405 0.07810485835025371 0.1466666666666667
vertex 0.26666666666666666 0 0.1466666666666667
endloop
endfacet
facet normal -0.034177449863834516 -0.08251166298859551 0.9960038792051272
outer loop
vertex 0.26666666666666666 0.2666666666666666 0.2
vertex 0.1333333333333333 0.1333333333333333 0.1843790283299492
vertex 0.26666666666666666 0.07810485835025371 0.1843790283299492
endloop
endfacet
facet normal -0.42792543084260115 -0.17725251713935528 0.8862625856967769
outer loop
vertex 0.1333333333333333 0.1333333333333333 0.1843790283299492
vertex 0.07810485835025399 0.2666666666666666 0.1843790283299492
vertex 0 0.2666666666666666 0.1466666666666667
endloop
endfacet
facet normal -0.42792543084260115 -0.17725251713935528 0.8862625856967769
outer loop
vertex 0.1333333333333333 0.1333333333333333 0.1843790283299492
vertex 0 0.2666666666666666 0.1466666666666667
vertex 0.07810485835025405 0.07810485835025371 0.1466666666666667
endloop
endfacet
facet normal -0.08251166298859554 -0.034177449863834405 0.9960038792051272
outer loop
vertex 0.26666666666666666 0.2666666666666666 0.2
vertex 0.07810485835025399 0.2666666666666666 0.1843790283299492
vertex 0.1333333333333333 0.1333333333333333 0.1843790283299492
endloop
endfacet
facet normal -0.42792543084260126 0.17725251713935544 0.8862625856967767
outer loop
vertex 0.07810485835025399 5.733333333333333 0.1843790283299492
vertex 0.1333333333333333 5.866666666666667 0.1843790283299492
vertex 0.07810485835025394 5.921895141649745 0.1466666666666667
endloop
endfacet
facet normal -0.42792543084260126 0.17725251713935544 0.8862625856967767
outer loop
vertex 0.07810485835025399 5.733333333333333 0.1843790283299492
vertex 0.07810485835025394 5.921895141649745 0.1466666666666667
vertex 0 5.733333333333333 0.1466666666666667
endloop
endfacet
facet normal -0.08251166298859564 0.03417744986383434 0.9960038792051272
outer loop
vertex 0.26666666666666666 5.733333333333333 0.2
vertex 0.1333333333333333 5.866666666666667 0.1843790283299492
vertex 0.07810485835025399 5.733333333333333 0.1843790283299492
endloop
endfacet
facet normal -0.17725251713935677 0.4279254308426032 0.8862625856967755
outer loop
vertex 0.1333333333333333 5.866666666666667 0.1843790283299492
vertex 0.2666666666666666 5.921895141649746 0.1843790283299492
vertex 0.26666666666666666 6 0.1466666666666667
endloop
endfacet
facet normal -0.17725251713935677 0.4279254308426032 0.8862625856967755
outer loop
vertex 0.1333333333333333 5.866666666666667 0.1843790283299492
vertex 0.26666666666666666 6 0.1466666666666667
vertex 0.07810485835025394 5.921895141649745 0.1466666666666667
endloop
endfacet
facet normal -0.03417744986383457 0.08251166298859548 0.9960038792051272
outer loop
vertex 0.26666666666666666 5.733333333333333 0.2
vertex 0.2666666666666666 5.921895141649746 0.1843790283299492
vertex 0.1333333333333333 5.866666666666667 0.1843790283299492
endloop
endfacet
facet normal 0.08255989610599401 0 0.9965861044360229
outer loop
vertex 0.9218951416497461 5.733333333333333 0.1843790283299492
vertex 0.7333333333333334 5.733333333333333 0.2
vertex 0.7333333333333334 0.2666666666666666 0.2
endloop
endfacet
facet normal 0.08255989610599401 0 0.9965861044360229
outer loop
vertex 0.9218951416497461 5.733333333333333 0.1843790283299492
vertex 0.7333333333333334 0.2666666666666666 0.2
vertex 0.9218951416497461 0.2666666666666666 0.1843790283299492
endloop
endfacet
facet normal 0.43481047850156623 0 0.90052198628642
outer loop
vertex 1 5.733333333333333 0.1466666666666667
vertex 0.9218951416497461 5.733333333333333 0.1843790283299492
vertex 0.9218951416497461 0.2666666666666666 0.1843790283299492
endloop
endfacet
facet normal 0.43481047850156623 0 0.90052198628642
outer loop
vertex 1 5.733333333333333 0.1466666666666667
vertex 0.9218951416497461 0.2666666666666666 0.1843790283299492
vertex 1 0.2666666666666666 0.1466666666666667
endloop
endfacet
facet normal 0 -0.08255989610599418 0.9965861044360229
outer loop
vertex 0.7333333333333334 0.07810485835025371 0.1843790283299492
vertex 0.7333333333333334 0.2666666666666666 0.2
vertex 0.26666666666666666 0.2666666666666666 0.2
endloop
endfacet
facet normal 0 -0.08255989610599418 0.9965861044360229
outer loop
vertex 0.7333333333333334 0.07810485835025371 0.1843790283299492
vertex 0.26666666666666666 0.2666666666666666 0.2
vertex 0.26666666666666666 0.07810485835025371 0.1843790283299492
endloop
endfacet
facet normal 0 -0.43481047850156584 0.9005219862864201
outer loop
vertex 0.7333333333333334 4.440892098500626e-16 0.1466666666666667
vertex 0.7333333333333334 0.07810485835025371 0.1843790283299492
vertex 0.26666666666666666 0.07810485835025371 0.1843790283299492
endloop
endfacet
facet normal 0 -0.43481047850156584 0.9005219862864201
outer loop
vertex 0.7333333333333334 4.440892098500626e-16 0.1466666666666667
vertex 0.26666666666666666 0.07810485835025371 0.1843790283299492
vertex 0.26666666666666666 0 0.1466666666666667
endloop
endfacet
facet normal -0.08255989610599412 0 0.9965861044360229
outer loop
vertex 0.07810485835025399 0.2666666666666666 0.1843790283299492
vertex 0.26666666666666666 0.2666666666666666 0.2
vertex 0.26666666666666666 5.733333333333333 0.2
endloop
endfacet
facet normal -0.08255989610599412 0 0.9965861044360229
outer loop
vertex 0.07810485835025399 0.2666666666666666 0.1843790283299492
vertex 0.26666666666666666 5.733333333333333 0.2
vertex 0.07810485835025399 5.733333333333333 0.1843790283299492
endloop
endfacet
facet normal -0.4348104785015663 0 0.9005219862864199
outer loop
vertex 0 0.2666666666666666 0.1466666666666667
vertex 0.07810485835025399 0.2666666666666666 0.1843790283299492
vertex 0.07810485835025399 5.733333333333333 0.1843790283299492
endloop
endfacet
facet normal -0.4348104785015663 0 0.9005219862864199
outer loop
vertex 0 0.2666666666666666 0.1466666666666667
vertex 0.07810485835025399 5.733333333333333 0.1843790283299492
vertex 0 5.733333333333333 0.1466666666666667
endloop
endfacet
facet normal 0 0.08255989610599412 0.9965861044360228
outer loop
vertex 0.2666666666666666 5.921895141649746 0.1843790283299492
vertex 0.26666666666666666 5.733333333333333 0.2
vertex 0.7333333333333334 5.733333333333333 0.2
endloop
endfacet
facet normal 0 0.08255989610599412 0.9965861044360228
outer loop
vertex 0.2666666666666666 5.921895141649746 0.1843790283299492
vertex 0.7333333333333334 5.733333333333333 0.2
vertex 0.7333333333333333 5.921895141649746 0.1843790283299492
endloop
endfacet
facet normal 0 0.4348104785015656 0.9005219862864202
outer loop
vertex 0.26666666666666666 6 0.1466666666666667
vertex 0.2666666666666666 5.921895141649746 0.1843790283299492
vertex 0.7333333333333333 5.921895141649746 0.1843790283299492
endloop
endfacet
facet normal 0 0.4348104785015656 0.9005219862864202
outer loop
vertex 0.26666666666666666 6 0.1466666666666667
vertex 0.7333333333333333 5.921895141649746 0.1843790283299492
vertex 0.7333333333333334 6 0.1466666666666667
endloop
endfacet
facet normal 0.9238795325112866 0.38268343236509006 0
outer loop
vertex 0.921895141649746 5.921895141649746 0.1466666666666667
vertex 1 5.733333333333333 0.1466666666666667
vertex 1 5.733333333333333 0.05333333333333334
endloop
endfacet
facet normal 0.9238795325112866 0.38268343236509006 0
outer loop
vertex 0.921895141649746 5.921895141649746 0.1466666666666667
vertex 1 5.733333333333333 0.05333333333333334
vertex 0.9218951416497461 5.921895141649745 0.05333333333333334
endloop
endfacet
facet normal 0.3826834323650896 0.923879532511287 0
outer loop
vertex 0.7333333333333334 6 0.1466666666666667
vertex 0.921895141649746 5.921895141649746 0.1466666666666667
vertex 0.9218951416497461 5.921895141649745 0.05333333333333334
endloop
endfacet
facet normal 0.3826834323650896 0.923879532511287 0
outer loop
vertex 0.7333333333333334 6 0.1466666666666667
vertex 0.9218951416497461 5.921895141649745 0.05333333333333334
vertex 0.7333333333333334 6 0.05333333333333334
endloop
endfacet
facet normal 0.3826834323650887 -0.9238795325112872 0
outer loop
vertex 0.9218951416497461 0.07810485835025416 0.1466666666666667
vertex 0.7333333333333334 4.440892098500626e-16 0.1466666666666667
vertex 0.7333333333333334 0 0.05333333333333334
endloop
endfacet
facet normal 0.3826834323650887 -0.9238795325112872 0
outer loop
vertex 0.9218951416497461 0.07810485835025416 0.1466666666666667
vertex 0.7333333333333334 0 0.05333333333333334
vertex 0.921895141649746 0.07810485835025371 0.05333333333333334
endloop
endfacet
facet normal 0.9238795325112868 -0.3826834323650897 0
outer loop
vertex 1 0.2666666666666666 0.1466666666666667
vertex 0.9218951416497461 0.07810485835025416 0.1466666666666667
vertex 0.921895141649746 0.07810485835025371 0.05333333333333334
endloop
endfacet
facet normal 0.9238795325112868 -0.3826834323650897 0
outer loop
vertex 1 0.2666666666666666 0.1466666666666667
vertex 0.921895141649746 0.07810485835025371 0.05333333333333334
vertex 1 0.2666666666666666 0.05333333333333334
endloop
endfacet
facet normal -0.9238795325112867 -0.38268343236508995 0
outer loop
vertex 0.07810485835025405 0.07810485835025371 0.1466666666666667
vertex 0 0.2666666666666666 0.1466666666666667
vertex 0 0.2666666666666666 0.05333333333333334
endloop
endfacet
facet normal -0.9238795325112867 -0.38268343236508995 0
outer loop
vertex 0.07810485835025405 0.07810485835025371 0.1466666666666667
vertex 0 0.2666666666666666 0.05333333333333334
vertex 0.07810485835025394 0.07810485835025416 0.05333333333333334
endloop
endfacet
facet normal -0.3826834323650905 -0.9238795325112865 0
outer loop
vertex 0.26666666666666666 0 0.1466666666666667
vertex 0.07810485835025405 0.07810485835025371 0.1466666666666667
vertex 0.07810485835025394 0.07810485835025416 0.05333333333333334
endloop
endfacet
facet normal -0.3826834323650905 -0.9238795325112865 0
outer loop
vertex 0.26666666666666666 0 0.1466666666666667
vertex 0.07810485835025394 0.07810485835025416 0.05333333333333334
vertex 0.26666666666666666 0 0.05333333333333334
endloop
endfacet
facet normal -0.3826834323650887 0.9238795325112872 0
outer loop
vertex 0.07810485835025394 5.921895141649745 0.1466666666666667
vertex 0.26666666666666666 6 0.1466666666666667
vertex 0.26666666666666666 6 0.05333333333333334
endloop
endfacet
facet normal -0.3826834323650887 0.9238795325112872 0
outer loop
vertex 0.07810485835025394 5.921895141649745 0.1466666666666667
vertex 0.26666666666666666 6 0.05333333333333334
vertex 0.07810485835025405 5.921895141649746 0.05333333333333334
endloop
endfacet
facet normal -0.9238795325112867 0.38268343236508984 0
outer loop
vertex 0 5.733333333333333 0.1466666666666667
vertex 0.07810485835025394 5.921895141649745 0.1466666666666667
vertex 0.07810485835025405 5.921895141649746 0.05333333333333334
endloop
endfacet
facet normal -0.9238795325112867 0.38268343236508984 0
outer loop
vertex 0 5.733333333333333 0.1466666666666667
vertex 0.07810485835025405 5.921895141649746 0.05333333333333334
vertex 0 5.733333333333333 0.05333333333333334
endloop
endfacet
facet normal 0.17725251713935453 0.4279254308426004 -0.8862625856967773
outer loop
vertex 0.7333333333333334 6 0.05333333333333334
vertex 0.9218951416497461 5.921895141649745 0.05333333333333334
vertex 0.8666666666666667 5.866666666666667 0.01562097167005081
endloop
endfacet
facet normal 0.17725251713935453 0.4279254308426004 -0.8862625856967773
outer loop
vertex 0.7333333333333334 6 0.05333333333333334
vertex 0.8666666666666667 5.866666666666667 0.01562097167005081
vertex 0.7333333333333333 5.921895141649746 0.01562097167005081
endloop
endfacet
facet normal 0.03417744986383446 0.08251166298859547 -0.9960038792051272
outer loop
vertex 0.7333333333333333 5.921895141649746 0.01562097167005081
vertex 0.8666666666666667 5.866666666666667 0.01562097167005081
vertex 0.7333333333333334 5.733333333333333 0
endloop
endfacet
facet normal 0.4279254308426011 0.17725251713935536 -0.8862625856967769
outer loop
vertex 0.9218951416497461 5.921895141649745 0.05333333333333334
vertex 1 5.733333333333333 0.05333333333333334
vertex 0.9218951416497461 5.733333333333333 0.01562097167005081
endloop
endfacet
facet normal 0.4279254308426011 0.17725251713935536 -0.8862625856967769
outer loop
vertex 0.9218951416497461 5.921895141649745 0.05333333333333334
vertex 0.9218951416497461 5.733333333333333 0.01562097167005081
vertex 0.8666666666666667 5.866666666666667 0.01562097167005081
endloop
endfacet
facet normal 0.08251166298859558 0.034177449863834454 -0.9960038792051272
outer loop
vertex 0.8666666666666667 5.866666666666667 0.01562097167005081
vertex 0.9218951416497461 5.733333333333333 0.01562097167005081
vertex 0.7333333333333334 5.733333333333333 0
endloop
endfacet
facet normal 0.42792543084260143 -0.17725251713935555 -0.8862625856967766
outer loop
vertex 1 0.2666666666666666 0.05333333333333334
vertex 0.921895141649746 0.07810485835025371 0.05333333333333334
vertex 0.8666666666666667 0.1333333333333333 0.01562097167005081
endloop
endfacet
facet normal 0.42792543084260143 -0.17725251713935555 -0.8862625856967766
outer loop
vertex 1 0.2666666666666666 0.05333333333333334
vertex 0.8666666666666667 0.1333333333333333 0.01562097167005081
vertex 0.9218951416497461 0.2666666666666666 0.01562097167005081
endloop
endfacet
facet normal 0.08251166298859558 -0.03417744986383442 -0.9960038792051272
outer loop
vertex 0.9218951416497461 0.2666666666666666 0.01562097167005081
vertex 0.8666666666666667 0.1333333333333333 0.01562097167005081
vertex 0.7333333333333334 0.2666666666666666 1.1102230246251566e-17
endloop
endfacet
facet normal 0.1772525171393562 -0.4279254308426021 -0.8862625856967762
outer loop
vertex 0.921895141649746 0.07810485835025371 0.05333333333333334
vertex 0.7333333333333334 0 0.05333333333333334
vertex 0.7333333333333334 0.07810485835025371 0.01562097167005081
endloop
endfacet
facet normal 0.1772525171393562 -0.4279254308426021 -0.8862625856967762
outer loop
vertex 0.921895141649746 0.07810485835025371 0.05333333333333334
vertex 0.7333333333333334 0.07810485835025371 0.01562097167005081
vertex 0.8666666666666667 0.1333333333333333 0.01562097167005081
endloop
endfacet
facet normal 0.034177449863834565 -0.08251166298859547 -0.9960038792051272
outer loop
vertex 0.8666666666666667 0.1333333333333333 0.01562097167005081
vertex 0.7333333333333334 0.07810485835025371 0.01562097167005081
vertex 0.7333333333333334 0.2666666666666666 1.1102230246251566e-17
endloop
endfacet
facet normal -0.1772525171393545 -0.4279254308426004 -0.8862625856967773
outer loop
vertex 0.26666666666666666 0 0.05333333333333334
vertex 0.07810485835025394 0.07810485835025416 0.05333333333333334
vertex 0.1333333333333333 0.1333333333333333 0.01562097167005081
endloop
endfacet
facet normal -0.1772525171393545 -0.4279254308426004 -0.8862625856967773
outer loop
vertex 0.26666666666666666 0 0.05333333333333334
vertex 0.1333333333333333 0.1333333333333333 0.01562097167005081
vertex 0.26666666666666666 0.07810485835025371 0.01562097167005081
endloop
endfacet
facet normal -0.034177449863834516 -0.08251166298859547 -0.9960038792051272
outer loop
vertex 0.26666666666666666 0.07810485835025371 0.01562097167005081
vertex 0.1333333333333333 0.1333333333333333 0.01562097167005081
vertex 0.26666666666666666 0.2666666666666666 0
endloop
endfacet
facet normal -0.4279254308426011 -0.17725251713935528 -0.8862625856967769
outer loop
vertex 0.07810485835025394 0.07810485835025416 0.05333333333333334
vertex 0 0.2666666666666666 0.05333333333333334
vertex 0.07810485835025399 0.2666666666666666 0.01562097167005081
endloop
endfacet
facet normal -0.4279254308426011 -0.17725251713935528 -0.8862625856967769
outer loop
vertex 0.07810485835025394 0.07810485835025416 0.05333333333333334
vertex 0.07810485835025399 0.2666666666666666 0.01562097167005081
vertex 0.1333333333333333 0.1333333333333333 0.01562097167005081
endloop
endfacet
facet normal -0.08251166298859558 -0.034177449863834426 -0.9960038792051272
outer loop
vertex 0.1333333333333333 0.1333333333333333 0.01562097167005081
vertex 0.07810485835025399 0.2666666666666666 0.01562097167005081
vertex 0.26666666666666666 0.2666666666666666 0
endloop
endfacet
facet normal -0.42792543084260126 0.1772525171393554 -0.8862625856967767
outer loop
vertex 0 5.733333333333333 0.05333333333333334
vertex 0.07810485835025405 5.921895141649746 0.05333333333333334
vertex 0.1333333333333333 5.866666666666667 0.01562097167005081
endloop
endfacet
facet normal -0.42792543084260126 0.1772525171393554 -0.8862625856967767
outer loop
vertex 0 5.733333333333333 0.05333333333333334
vertex 0.1333333333333333 5.866666666666667 0.01562097167005081
vertex 0.07810485835025399 5.733333333333333 0.01562097167005081
endloop
endfacet
facet normal -0.08251166298859558 0.034177449863834426 -0.9960038792051272
outer loop
vertex 0.07810485835025399 5.733333333333333 0.01562097167005081
vertex 0.1333333333333333 5.866666666666667 0.01562097167005081
vertex 0.26666666666666666 5.733333333333333 1.1102230246251566e-17
endloop
endfacet
facet normal -0.17725251713935686 0.42792543084260304 -0.8862625856967756
outer loop
vertex 0.07810485835025405 5.921895141649746 0.05333333333333334
vertex 0.26666666666666666 6 0.05333333333333334
vertex 0.2666666666666666 5.921895141649746 0.01562097167005081
endloop
endfacet
facet normal -0.17725251713935686 0.42792543084260304 -0.8862625856967756
outer loop
vertex 0.07810485835025405 5.921895141649746 0.05333333333333334
vertex 0.2666666666666666 5.921895141649746 0.01562097167005081
vertex 0.1333333333333333 5.866666666666667 0.01562097167005081
endloop
endfacet
facet normal -0.03417744986383458 0.08251166298859547 -0.9960038792051272
outer loop
vertex 0.1333333333333333 5.866666666666667 0.01562097167005081
vertex 0.2666666666666666 5.921895141649746 0.01562097167005081
vertex 0.26666666666666666 5.733333333333333 1.1102230246251566e-17
endloop
endfacet
facet normal 0.4348104785015665 0 -0.9005219862864198
outer loop
vertex 0.9218951416497461 5.733333333333333 0.01562097167005081
vertex 1 5.733333333333333 0.05333333333333334
vertex 1 0.2666666666666666 0.05333333333333334
endloop
endfacet
facet normal 0.4348104785015665 0 -0.9005219862864198
outer loop
vertex 0.9218951416497461 5.733333333333333 0.01562097167005081
vertex 1 0.2666666666666666 0.05333333333333334
vertex 0.9218951416497461 0.2666666666666666 0.01562097167005081
endloop
endfacet
facet normal 0.08255989610599415 0 -0.9965861044360229
outer loop
vertex 0.7333333333333334 5.733333333333333 0
vertex 0.9218951416497461 5.733333333333333 0.01562097167005081
vertex 0.9218951416497461 0.2666666666666666 0.01562097167005081
endloop
endfacet
facet normal 0.08255989610599415 0 -0.9965861044360229
outer loop
vertex 0.7333333333333334 5.733333333333333 0
vertex 0.9218951416497461 0.2666666666666666 0.01562097167005081
vertex 0.7333333333333334 0.2666666666666666 1.1102230246251566e-17
endloop
endfacet
facet normal 0 -0.43481047850156773 -0.9005219862864192
outer loop
vertex 0.7333333333333334 0.07810485835025371 0.01562097167005081
vertex 0.7333333333333334 0 0.05333333333333334
vertex 0.26666666666666666 0 0.05333333333333334
endloop
endfacet
facet normal 0 -0.43481047850156773 -0.9005219862864192
outer loop
vertex 0.7333333333333334 0.07810485835025371 0.01562097167005081
vertex 0.26666666666666666 0 0.05333333333333334
vertex 0.26666666666666666 0.07810485835025371 0.01562097167005081
endloop
endfacet
facet normal 0 -0.08255989610599405 -0.9965861044360229
outer loop
vertex 0.7333333333333334 0.2666666666666666 1.1102230246251566e-17
vertex 0.7333333333333334 0.07810485835025371 0.01562097167005081
vertex 0.26666666666666666 0.07810485835025371 0.01562097167005081
endloop
endfacet
facet normal 0 -0.08255989610599405 -0.9965861044360229
outer loop
vertex 0.7333333333333334 0.2666666666666666 1.1102230246251566e-17
vertex 0.26666666666666666 0.07810485835025371 0.01562097167005081
vertex 0.26666666666666666 0.2666666666666666 0
endloop
endfacet
facet normal -0.43481047850156673 0 -0.9005219862864197
outer loop
vertex 0.07810485835025399 0.2666666666666666 0.01562097167005081
vertex 0 0.2666666666666666 0.05333333333333334
vertex 0 5.733333333333333 0.05333333333333334
endloop
endfacet
facet normal -0.43481047850156673 0 -0.9005219862864197
outer loop
vertex 0.07810485835025399 0.2666666666666666 0.01562097167005081
vertex 0 5.733333333333333 0.05333333333333334
vertex 0.07810485835025399 5.733333333333333 0.01562097167005081
endloop
endfacet
facet normal -0.08255989610599414 0 -0.9965861044360229
outer loop
vertex 0.26666666666666666 0.2666666666666666 0
vertex 0.07810485835025399 0.2666666666666666 0.01562097167005081
vertex 0.07810485835025399 5.733333333333333 0.01562097167005081
endloop
endfacet
facet normal -0.08255989610599414 0 -0.9965861044360229
outer loop
vertex 0.26666666666666666 0.2666666666666666 0
vertex 0.07810485835025399 5.733333333333333 0.01562097167005081
vertex 0.26666666666666666 5.733333333333333 1.1102230246251566e-17
endloop
endfacet
facet normal 0 0.43481047850156784 -0.9005219862864192
outer loop
vertex 0.2666666666666666 5.921895141649746 0.01562097167005081
vertex 0.26666666666666666 6 0.05333333333333334
vertex 0.7333333333333334 6 0.05333333333333334
endloop
endfacet
facet normal 0 0.43481047850156784 -0.9005219862864192
outer loop
vertex 0.2666666666666666 5.921895141649746 0.01562097167005081
vertex 0.7333333333333334 6 0.05333333333333334
vertex 0.7333333333333333 5.921895141649746 0.01562097167005081
endloop
endfacet
facet normal 0 0.08255989610599407 -0.9965861044360229
outer loop
vertex 0.26666666666666666 5.733333333333333 1.1102230246251566e-17
vertex 0.2666666666666666 5.921895141649746 0.01562097167005081
vertex 0.7333333333333333 5.921895141649746 0.01562097167005081
endloop
endfacet
facet normal 0 0.08255989610599407 -0.9965861044360229
outer loop
vertex 0.26666666666666666 5.733333333333333 1.1102230246251566e-17
vertex 0.7333333333333333 5.921895141649746 0.01562097167005081
vertex 0.7333333333333334 5.733333333333333 0
endloop
endfacet
facet normal -1 0 0
outer loop
vertex 0.05 0.2 -1
vertex 0.05 0.2 0
vertex 0.05 6 0
endloop
endfacet
facet normal -1 0 0
outer loop
vertex 0.05 0.2 -1
vertex 0.05 6 0
vertex 0.05 6 -1
endloop
endfacet
facet normal 1 0 0
outer loop
vertex 0.9500000000000001 0.2 -1
vertex 0.9500000000000001 6 -1
vertex 0.9500000000000001 6 0
endloop
endfacet
facet normal 1 0 0
outer loop
vertex 0.9500000000000001 0.2 -1
vertex 0.9500000000000001 6 0
vertex 0.9500000000000001 0.2 0
endloop
endfacet
facet normal 0 -1 0
outer loop
vertex 0.05 0.2 -1
vertex 0.9500000000000001 0.2 -1
vertex 0.9500000000000001 0.2 0
endloop
endfacet
facet normal 0 -1 0
outer loop
vertex 0.05 0.2 -1
vertex 0.9500000000000001 0.2 0
vertex 0.05 0.2 0
endloop
endfacet
facet normal 0 0 -1
outer loop
vertex 0.05 0.2 -1
vertex 0.05 6 -1
vertex 0.9500000000000001 6 -1
endloop
endfacet
facet normal 0 0 -1
outer loop
vertex 0.05 0.2 -1
vertex 0.9500000000000001 6 -1
vertex 0.9500000000000001 0.2 -1
endloop
endfacet
facet normal 0 0 1
outer loop
vertex 0.9500000000000001 0.2 0
vertex 0.9500000000000001 0.2666666666666666 0
vertex 0.05 0.2666666666666666 0
endloop
endfacet
facet normal 0 0 1
outer loop
vertex 0.9500000000000001 0.2 0
vertex 0.05 0.2666666666666666 0
vertex 0.05 0.2 0
endloop
endfacet
facet normal 0 0 1
outer loop
vertex 0.26666666666666666 0.2666666666666666 0
vertex 0.26666666666666666 5.733333333333333 1.1102230246251566e-17
vertex 0.05 5.733333333333333 0
endloop
endfacet
facet normal 0 0 1
outer loop
vertex 0.26666666666666666 0.2666666666666666 0
vertex 0.05 5.733333333333333 0
vertex 0.05 0.2666666666666666 0
endloop
endfacet
facet normal 0 0 1
outer loop
vertex 0.9500000000000001 0.2666666666666666 0
vertex 0.9500000000000001 5.733333333333333 0
vertex 0.7333333333333334 5.733333333333333 0
endloop
endfacet
facet normal 0 0 1
outer loop
vertex 0.9500000000000001 0.2666666666666666 0
vertex 0.7333333333333334 5.733333333333333 0
vertex 0.7333333333333334 0.2666666666666666 1.1102230246251566e-17
endloop
endfacet
facet normal 0 0 1
outer loop
vertex 0.9500000000000001 5.733333333333333 0
vertex 0.9500000000000001 6 0
vertex 0.05 6 0
endloop
endfacet
facet normal 0 0 1
outer loop
vertex 0.9500000000000001 5.733333333333333 0
vertex 0.05 6 0
vertex 0.05 5.733333333333333 0
endloop
endfacet
facet normal -1 0 0
outer loop
vertex 0 0.21666666666666679 0.043333333333333335
vertex 0 0.21666666666666679 0.25666666666666665
vertex 0 3.783333333333333 0.25666666666666665
endloop
endfacet
facet normal -1 0 0
outer loop
vertex 0 0.21666666666666679 0.043333333333333335
vertex 0 3.783333333333333 0.25666666666666665
vertex 0 3.783333333333333 0.043333333333333335
endloop
endfacet
facet normal 1 0 0
outer loop
vertex 1 0.21666666666666679 0.043333333333333335
vertex 1 3.783333333333333 0.043333333333333335
vertex 1 3.783333333333333 0.25666666666666665
endloop
endfacet
facet normal 1 0 0
outer loop
vertex 1 0.21666666666666679 0.043333333333333335
vertex 1 3.783333333333333 0.25666666666666665
vertex 1 0.21666666666666679 0.25666666666666665
endloop
endfacet
facet normal 0 -1 0
outer loop
vertex 0.21666666666666667 0 0.043333333333333335
vertex 0.7833333333333333 0 0.043333333333333335
vertex 0.7833333333333333 0 0.25666666666666665
endloop
endfacet
facet normal 0 -1 0
outer loop
vertex 0.21666666666666667 0 0.043333333333333335
vertex 0.7833333333333333 0 0.25666666666666665
vertex 0.21666666666666667 0 0.25666666666666665
endloop
endfacet
facet normal 0 0 -1
outer loop
vertex 0.21666666666666667 0.21666666666666679 0
vertex 0.21666666666666667 2.2 0
vertex 0.7833333333333333 2.2 0
endloop
endfacet
facet normal 0 0 -1
outer loop
vertex 0.21666666666666667 0.21666666666666679 0
vertex 0.7833333333333333 2.2 0
vertex 0.7833333333333333 0.21666666666666679 0
endloop
endfacet
facet normal 0 0 1
outer loop
vertex 0.21666666666666667 0.21666666666666679 0.30000000000000004
vertex 0.7833333333333333 0.21666666666666679 0.30000000000000004
vertex 0.7833333333333333 2.2 0.30000000000000004
endloop
endfacet
facet normal 0 0 1
outer loop
vertex 0.21666666666666667 0.21666666666666679 0.30000000000000004
vertex 0.7833333333333333 2.2 0.30000000000000004
vertex 0.21666666666666667 2.2 0.30000000000000004
endloop
endfacet
facet normal 0.427925430842601 0.17725251713935555 0.8862625856967769
outer loop
vertex 0.9500000000000001 3.783333333333333 0.28080880229039756
vertex 1 3.783333333333333 0.25666666666666665
vertex 0.9500000000000001 3.904044011451988 0.25666666666666665
endloop
endfacet
facet normal 0.42792543084260104 -0.1772525171393553 0.886262585696777
outer loop
vertex 0.9365398025904186 0.21666666666666679 0.2873079605180837
vertex 0.8916666666666666 0.10833333333333339 0.2873079605180837
vertex 0.9365398025904186 0.06346019740958142 0.25666666666666665
endloop
endfacet
facet normal 0.42792543084260104 -0.1772525171393553 0.886262585696777
outer loop
vertex 0.9365398025904186 0.21666666666666679 0.2873079605180837
vertex 0.9365398025904186 0.06346019740958142 0.25666666666666665
vertex 1 0.21666666666666679 0.25666666666666665
endloop
endfacet
facet normal 0.08251166298859558 -0.034177449863834405 0.9960038792051272
outer loop
vertex 0.7833333333333333 0.21666666666666679 0.30000000000000004
vertex 0.8916666666666666 0.10833333333333339 0.2873079605180837
vertex 0.9365398025904186 0.21666666666666679 0.2873079605180837
endloop
endfacet
facet normal 0.1772525171393553 -0.427925430842601 0.886262585696777
outer loop
vertex 0.8916666666666666 0.10833333333333339 0.2873079605180837
vertex 0.7833333333333333 0.06346019740958142 0.2873079605180837
vertex 0.7833333333333333 0 0.25666666666666665
endloop
endfacet
facet normal 0.1772525171393553 -0.427925430842601 0.886262585696777
outer loop
vertex 0.8916666666666666 0.10833333333333339 0.2873079605180837
vertex 0.7833333333333333 0 0.25666666666666665
vertex 0.9365398025904186 0.06346019740958142 0.25666666666666665
endloop
endfacet
facet normal 0.0341774498638344 -0.08251166298859558 0.9960038792051272
outer loop
vertex 0.7833333333333333 0.21666666666666679 0.30000000000000004
vertex 0.7833333333333333 0.06346019740958142 0.2873079605180837
vertex 0.8916666666666666 0.10833333333333339 0.2873079605180837
endloop
endfacet
facet normal -0.17725251713935536 -0.42792543084260126 0.8862625856967769
outer loop
vertex 0.21666666666666667 0.06346019740958142 0.2873079605180837
vertex 0.10833333333333334 0.10833333333333339 0.2873079605180837
vertex 0.06346019740958142 0.06346019740958142 0.25666666666666665
endloop
endfacet
facet normal -0.17725251713935536 -0.42792543084260126 0.8862625856967769
outer loop
vertex 0.21666666666666667 0.06346019740958142 0.2873079605180837
vertex 0.06346019740958142 0.06346019740958142 0.25666666666666665
vertex 0.21666666666666667 0 0.25666666666666665
endloop
endfacet
facet normal -0.034177449863834405 -0.08251166298859558 0.9960038792051272
outer loop
vertex 0.21666666666666667 0.21666666666666679 0.30000000000000004
vertex 0.10833333333333334 0.10833333333333339 0.2873079605180837
vertex 0.21666666666666667 0.06346019740958142 0.2873079605180837
endloop
endfacet
facet normal -0.4279254308426012 -0.17725251713935536 0.8862625856967769
outer loop
vertex 0.10833333333333334 0.10833333333333339 0.2873079605180837
vertex 0.06346019740958136 0.21666666666666679 0.2873079605180837
vertex 0 0.21666666666666679 0.25666666666666665
endloop
endfacet
facet normal -0.4279254308426012 -0.17725251713935536 0.8862625856967769
outer loop
vertex 0.10833333333333334 0.10833333333333339 0.2873079605180837
vertex 0 0.21666666666666679 0.25666666666666665
vertex 0.06346019740958142 0.06346019740958142 0.25666666666666665
endloop
endfacet
facet normal -0.08251166298859551 -0.034177449863834405 0.9960038792051272
outer loop
vertex 0.21666666666666667 0.21666666666666679 0.30000000000000004
vertex 0.06346019740958136 0.21666666666666679 0.2873079605180837
vertex 0.10833333333333334 0.10833333333333339 0.2873079605180837
endloop
endfacet
facet normal -0.42792543084260115 0.17725251713935505 0.8862625856967769
outer loop
vertex 0.05 3.9040440114519885 0.25666666666666665
vertex 0 3.783333333333333 0.25666666666666665
vertex 0.05 3.783333333333333 0.2808088022903976
endloop
endfacet
facet normal 0.08255989610599401 0 0.9965861044360229
outer loop
vertex 0.7833333333333333 2.2 0.30000000000000004
vertex 0.7833333333333333 0.21666666666666679 0.30000000000000004
vertex 0.9365398025904186 0.21666666666666679 0.2873079605180837
endloop
endfacet
facet normal 0.08255989610599401 0 0.9965861044360229
outer loop
vertex 0.7833333333333333 2.2 0.30000000000000004
vertex 0.9365398025904186 0.21666666666666679 0.2873079605180837
vertex 0.9365398025904186 2.2 0.2873079605180837
endloop
endfacet
facet normal 0.4348104785015665 0 0.9005219862864198
outer loop
vertex 1 3.783333333333333 0.25666666666666665
vertex 0.9500000000000001 3.783333333333333 0.28080880229039756
vertex 0.9500000000000002 0.21666666666666679 0.2808088022903977
endloop
endfacet
facet normal 0.4348104785015665 0 0.9005219862864198
outer loop
vertex 1 3.783333333333333 0.25666666666666665
vertex 0.9500000000000002 0.21666666666666679 0.2808088022903977
vertex 1 0.21666666666666679 0.25666666666666665
endloop
endfacet
facet normal 0.4348104785015665 0 0.9005219862864198
outer loop
vertex 0.9500000000000002 2.2 0.2808088022903977
vertex 0.9365398025904186 2.2 0.2873079605180837
vertex 0.9365398025904186 0.21666666666666679 0.2873079605180837
endloop
endfacet
facet normal 0.4348104785015665 0 0.9005219862864198
outer loop
vertex 0.9500000000000002 2.2 0.2808088022903977
vertex 0.9365398025904186 0.21666666666666679 0.2873079605180837
vertex 0.9500000000000002 0.21666666666666679 0.2808088022903977
endloop
endfacet
facet normal 0 -0.08255989610599407 0.9965861044360229
outer loop
vertex 0.7833333333333333 0.06346019740958142 0.2873079605180837
vertex 0.7833333333333333 0.21666666666666679 0.30000000000000004
vertex 0.21666666666666667 0.21666666666666679 0.30000000000000004
endloop
endfacet
facet normal 0 -0.08255989610599407 0.9965861044360229
outer loop
vertex 0.7833333333333333 0.06346019740958142 0.2873079605180837
vertex 0.21666666666666667 0.21666666666666679 0.30000000000000004
vertex 0.21666666666666667 0.06346019740958142 0.2873079605180837
endloop
endfacet
facet normal 0 -0.4348104785015663 0.9005219862864199
outer loop
vertex 0.7833333333333333 0 0.25666666666666665
vertex 0.7833333333333333 0.06346019740958142 0.2873079605180837
vertex 0.21666666666666667 0.06346019740958142 0.2873079605180837
endloop
endfacet
facet normal 0 -0.4348104785015663 0.9005219862864199
outer loop
vertex 0.7833333333333333 0 0.25666666666666665
vertex 0.21666666666666667 0.06346019740958142 0.2873079605180837
vertex 0.21666666666666667 0 0.25666666666666665
endloop
endfacet
facet normal -0.08255989610599412 0 0.9965861044360228
outer loop
vertex 0.06346019740958136 0.21666666666666679 0.2873079605180837
vertex 0.21666666666666667 0.21666666666666679 0.30000000000000004
vertex 0.21666666666666667 2.2 0.30000000000000004
endloop
endfacet
facet normal -0.08255989610599412 0 0.9965861044360228
outer loop
vertex 0.06346019740958136 0.21666666666666679 0.2873079605180837
vertex 0.21666666666666667 2.2 0.30000000000000004
vertex 0.06346019740958136 2.2 0.2873079605180837
endloop
endfacet
facet normal -0.4348104785015662 0 0.9005219862864199
outer loop
vertex 0.06346019740958136 2.2 0.2873079605180837
vertex 0.050000000000000044 2.2 0.2808088022903976
vertex 0.050000000000000044 0.21666666666666679 0.2808088022903976
endloop
endfacet
facet normal -0.4348104785015662 0 0.9005219862864199
outer loop
vertex 0.06346019740958136 2.2 0.2873079605180837
vertex 0.050000000000000044 0.21666666666666679 0.2808088022903976
vertex 0.06346019740958136 0.21666666666666679 0.2873079605180837
endloop
endfacet
facet normal -0.4348104785015662 0 0.9005219862864199
outer loop
vertex 0.05 3.783333333333333 0.2808088022903976
vertex 0 3.783333333333333 0.25666666666666665
vertex 0 0.21666666666666679 0.25666666666666665
endloop
endfacet
facet normal -0.4348104785015662 0 0.9005219862864199
outer loop
vertex 0.05 3.783333333333333 0.2808088022903976
vertex 0 0.21666666666666679 0.25666666666666665
vertex 0.050000000000000044 0.21666666666666679 0.2808088022903976
endloop
endfacet
facet normal 0.9238795325112868 0.3826834323650896 0
outer loop
vertex 0.9500000000000001 3.904044011451988 0.25666666666666665
vertex 1 3.783333333333333 0.25666666666666665
vertex 1 3.783333333333333 0.043333333333333335
endloop
endfacet
facet normal 0.9238795325112868 0.3826834323650896 0
outer loop
vertex 0.9500000000000001 3.904044011451988 0.25666666666666665
vertex 1 3.783333333333333 0.043333333333333335
vertex 0.9500000000000001 3.904044011451988 0.043333333333333335
endloop
endfacet
facet normal 0.38268343236509006 -0.9238795325112866 0
outer loop
vertex 0.9365398025904186 0.06346019740958142 0.25666666666666665
vertex 0.7833333333333333 0 0.25666666666666665
vertex 0.7833333333333333 0 0.043333333333333335
endloop
endfacet
facet normal 0.38268343236509006 -0.9238795325112866 0
outer loop
vertex 0.9365398025904186 0.06346019740958142 0.25666666666666665
vertex 0.7833333333333333 0 0.043333333333333335
vertex 0.9365398025904186 0.06346019740958142 0.043333333333333335
endloop
endfacet
facet normal 0.9238795325112867 -0.38268343236508995 0
outer loop
vertex 1 0.21666666666666679 0.25666666666666665
vertex 0.9365398025904186 0.06346019740958142 0.25666666666666665
vertex 0.9365398025904186 0.06346019740958142 0.043333333333333335
endloop
endfacet
facet normal 0.9238795325112867 -0.38268343236508995 0
outer loop
vertex 1 0.21666666666666679 0.25666666666666665
vertex 0.9365398025904186 0.06346019740958142 0.043333333333333335
vertex 1 0.21666666666666679 0.043333333333333335
endloop
endfacet
facet normal -0.9238795325112868 -0.38268343236508945 0
outer loop
vertex 0.06346019740958142 0.06346019740958142 0.25666666666666665
vertex 0 0.21666666666666679 0.25666666666666665
vertex 0 0.21666666666666679 0.043333333333333335
endloop
endfacet
facet normal -0.9238795325112868 -0.38268343236508945 0
outer loop
vertex 0.06346019740958142 0.06346019740958142 0.25666666666666665
vertex 0 0.21666666666666679 0.043333333333333335
vertex 0.06346019740958131 0.06346019740958142 0.043333333333333335
endloop
endfacet
facet normal -0.38268343236509006 -0.9238795325112866 0
outer loop
vertex 0.21666666666666667 0 0.25666666666666665
vertex 0.06346019740958142 0.06346019740958142 0.25666666666666665
vertex 0.06346019740958131 0.06346019740958142 0.043333333333333335
endloop
endfacet
facet normal -0.38268343236509006 -0.9238795325112866 0
outer loop
vertex 0.21666666666666667 0 0.25666666666666665
vertex 0.06346019740958131 0.06346019740958142 0.043333333333333335
vertex 0.21666666666666667 0 0.043333333333333335
endloop
endfacet
facet normal -0.9238795325112867 0.3826834323650899 0
outer loop
vertex 0 3.783333333333333 0.25666666666666665
vertex 0.05 3.9040440114519885 0.25666666666666665
vertex 0.05 3.904044011451988 0.043333333333333335
endloop
endfacet
facet normal -0.9238795325112867 0.3826834323650899 0
outer loop
vertex 0 3.783333333333333 0.25666666666666665
vertex 0.05 3.904044011451988 0.043333333333333335
vertex 0 3.783333333333333 0.043333333333333335
endloop
endfacet
facet normal 0.4279254308426014 0.1772525171393552 -0.8862625856967767
outer loop
vertex 0.9500000000000001 3.904044011451988 0.043333333333333335
vertex 1 3.783333333333333 0.043333333333333335
vertex 0.9500000000000001 3.783333333333333 0.019191197709602446
endloop
endfacet
facet normal 0.42792543084260126 -0.1772525171393552 -0.8862625856967769
outer loop
vertex 1 0.21666666666666679 0.043333333333333335
vertex 0.9365398025904186 0.06346019740958142 0.043333333333333335
vertex 0.8916666666666666 0.10833333333333339 0.012692039481916285
endloop
endfacet
facet normal 0.42792543084260126 -0.1772525171393552 -0.8862625856967769
outer loop
vertex 1 0.21666666666666679 0.043333333333333335
vertex 0.8916666666666666 0.10833333333333339 0.012692039481916285
vertex 0.9365398025904186 0.21666666666666679 0.012692039481916285
endloop
endfacet
facet normal 0.08251166298859561 -0.0341774498638344 -0.9960038792051272
outer loop
vertex 0.9365398025904186 0.21666666666666679 0.012692039481916285
vertex 0.8916666666666666 0.10833333333333339 0.012692039481916285
vertex 0.7833333333333333 0.21666666666666679 0
endloop
endfacet
facet normal 0.17725251713935536 -0.42792543084260126 -0.8862625856967767
outer loop
vertex 0.9365398025904186 0.06346019740958142 0.043333333333333335
vertex 0.7833333333333333 0 0.043333333333333335
vertex 0.7833333333333333 0.06346019740958142 0.012692039481916285
endloop
endfacet
facet normal 0.17725251713935536 -0.42792543084260126 -0.8862625856967767
outer loop
vertex 0.9365398025904186 0.06346019740958142 0.043333333333333335
vertex 0.7833333333333333 0.06346019740958142 0.012692039481916285
vertex 0.8916666666666666 0.10833333333333339 0.012692039481916285
endloop
endfacet
facet normal 0.03417744986383441 -0.08251166298859555 -0.9960038792051272
outer loop
vertex 0.8916666666666666 0.10833333333333339 0.012692039481916285
vertex 0.7833333333333333 0.06346019740958142 0.012692039481916285
vertex 0.7833333333333333 0.21666666666666679 0
endloop
endfacet
facet normal -0.17725251713935553 -0.427925430842601 -0.886262585696777
outer loop
vertex 0.21666666666666667 0 0.043333333333333335
vertex 0.06346019740958131 0.06346019740958142 0.043333333333333335
vertex 0.10833333333333334 0.10833333333333339 0.012692039481916285
endloop
endfacet
facet normal -0.17725251713935553 -0.427925430842601 -0.886262585696777
outer loop
vertex 0.21666666666666667 0 0.043333333333333335
vertex 0.10833333333333334 0.10833333333333339 0.012692039481916285
vertex 0.21666666666666667 0.06346019740958142 0.012692039481916285
endloop
endfacet
facet normal -0.0341774498638344 -0.08251166298859557 -0.9960038792051272
outer loop
vertex 0.21666666666666667 0.06346019740958142 0.012692039481916285
vertex 0.10833333333333334 0.10833333333333339 0.012692039481916285
vertex 0.21666666666666667 0.21666666666666679 0
endloop
endfacet
facet normal -0.42792543084260115 -0.17725251713935533 -0.8862625856967769
outer loop
vertex 0.06346019740958131 0.06346019740958142 0.043333333333333335
vertex 0 0.21666666666666679 0.043333333333333335
vertex 0.06346019740958136 0.21666666666666679 0.012692039481916285
endloop
endfacet
facet normal -0.42792543084260115 -0.17725251713935533 -0.8862625856967769
outer loop
vertex 0.06346019740958131 0.06346019740958142 0.043333333333333335
vertex 0.06346019740958136 0.21666666666666679 0.012692039481916285
vertex 0.10833333333333334 0.10833333333333339 0.012692039481916285
endloop
endfacet
facet normal -0.08251166298859558 -0.03417744986383442 -0.9960038792051272
outer loop
vertex 0.10833333333333334 0.10833333333333339 0.012692039481916285
vertex 0.06346019740958136 0.21666666666666679 0.012692039481916285
vertex 0.21666666666666667 0.21666666666666679 0
endloop
endfacet
facet normal -0.42792543084260115 0.17725251713935508 -0.886262585696777
outer loop
vertex 0 3.783333333333333 0.043333333333333335
vertex 0.05 3.904044011451988 0.043333333333333335
vertex 0.05 3.783333333333333 0.019191197709602387
endloop
endfacet
facet normal 0.43481047850156657 0 -0.9005219862864198
outer loop
vertex 0.9365398025904186 2.2 0.012692039481916162
vertex 0.9500000000000002 2.2 0.01919119770960237
vertex 0.9500000000000002 0.21666666666666679 0.01919119770960237
endloop
endfacet
facet normal 0.43481047850156657 0 -0.9005219862864198
outer loop
vertex 0.9365398025904186 2.2 0.012692039481916162
vertex 0.9500000000000002 0.21666666666666679 0.01919119770960237
vertex 0.9365398025904186 0.21666666666666679 0.012692039481916285
endloop
endfacet
facet normal 0.43481047850156657 0 -0.9005219862864198
outer loop
vertex 0.9500000000000001 3.783333333333333 0.019191197709602446
vertex 1 3.783333333333333 0.043333333333333335
vertex 1 0.21666666666666679 0.043333333333333335
endloop
endfacet
facet normal 0.43481047850156657 0 -0.9005219862864198
outer loop
vertex 0.9500000000000001 3.783333333333333 0.019191197709602446
vertex 1 0.21666666666666679 0.043333333333333335
vertex 0.9500000000000002 0.21666666666666679 0.01919119770960237
endloop
endfacet
facet normal 0.08255989610599414 0 -0.9965861044360228
outer loop
vertex 0.9365398025904186 2.2 0.012692039481916162
vertex 0.9365398025904186 0.21666666666666679 0.012692039481916285
vertex 0.7833333333333333 0.21666666666666679 0
endloop
endfacet
facet normal 0.08255989610599414 0 -0.9965861044360228
outer loop
vertex 0.9365398025904186 2.2 0.012692039481916162
vertex 0.7833333333333333 0.21666666666666679 0
vertex 0.7833333333333333 2.2 0
endloop
endfacet
facet normal 0 -0.43481047850156607 -0.90052198628642
outer loop
vertex 0.7833333333333333 0.06346019740958142 0.012692039481916285
vertex 0.7833333333333333 0 0.043333333333333335
vertex 0.21666666666666667 0 0.043333333333333335
endloop
endfacet
facet normal 0 -0.43481047850156607 -0.90052198628642
outer loop
vertex 0.7833333333333333 0.06346019740958142 0.012692039481916285
vertex 0.21666666666666667 0 0.043333333333333335
vertex 0.21666666666666667 0.06346019740958142 0.012692039481916285
endloop
endfacet
facet normal 0 -0.0825598961059941 -0.9965861044360229
outer loop
vertex 0.7833333333333333 0.21666666666666679 0
vertex 0.7833333333333333 0.06346019740958142 0.012692039481916285
vertex 0.21666666666666667 0.06346019740958142 0.012692039481916285
endloop
endfacet
facet normal 0 -0.0825598961059941 -0.9965861044360229
outer loop
vertex 0.7833333333333333 0.21666666666666679 0
vertex 0.21666666666666667 0.06346019740958142 0.012692039481916285
vertex 0.21666666666666667 0.21666666666666679 0
endloop
endfacet
facet normal -0.4348104785015668 0 -0.9005219862864197
outer loop
vertex 0 3.783333333333333 0.043333333333333335
vertex 0.05 3.783333333333333 0.019191197709602387
vertex 0.05 0.21666666666666679 0.019191197709602384
endloop
endfacet
facet normal -0.4348104785015668 0 -0.9005219862864197
outer loop
vertex 0 3.783333333333333 0.043333333333333335
vertex 0.05 0.21666666666666679 0.019191197709602384
vertex 0 0.21666666666666679 0.043333333333333335
endloop
endfacet
facet normal -0.4348104785015668 0 -0.9005219862864197
outer loop
vertex 0.05 2.2 0.019191197709602384
vertex 0.06346019740958136 2.2 0.012692039481916276
vertex 0.06346019740958136 0.21666666666666679 0.012692039481916285
endloop
endfacet
facet normal -0.4348104785015668 0 -0.9005219862864197
outer loop
vertex 0.05 2.2 0.019191197709602384
vertex 0.06346019740958136 0.21666666666666679 0.012692039481916285
vertex 0.05 0.21666666666666679 0.019191197709602384
endloop
endfacet
facet normal -0.08255989610599417 0 -0.9965861044360229
outer loop
vertex 0.21666666666666667 0.21666666666666679 0
vertex 0.06346019740958136 0.21666666666666679 0.012692039481916285
vertex 0.06346019740958136 2.2 0.012692039481916276
endloop
endfacet
facet normal -0.08255989610599417 0 -0.9965861044360229
outer loop
vertex 0.21666666666666667 0.21666666666666679 0
vertex 0.06346019740958136 2.2 0.012692039481916276
vertex 0.21666666666666667 2.2 0
endloop
endfacet
facet normal -1 0 0
outer loop
vertex 0.05 6 0.9999999999999999
vertex 0.05 6 0.2808088022903976
vertex 0.050000000000000044 2.2 0.2808088022903976
endloop
endfacet
facet normal -1 0 0
outer loop
vertex 0.05 6 0.9999999999999999
vertex 0.050000000000000044 2.2 0.2808088022903976
vertex 0.05 2.2 0.9999999999999999
endloop
endfacet
facet normal -1 0 0
outer loop
vertex 0.05 6 0.2808088022903976
vertex 0.05 6 0.25666666666666665
vertex 0.05 3.9040440114519885 0.25666666666666665
endloop
endfacet
facet normal -1 0 0
outer loop
vertex 0.05 6 0.2808088022903976
vertex 0.05 3.9040440114519885 0.25666666666666665
vertex 0.05 3.783333333333333 0.2808088022903976
endloop
endfacet
facet normal -1 0 0
outer loop
vertex 0.05 6 0.25666666666666665
vertex 0.05 6 0.043333333333333335
vertex 0.05 3.904044011451988 0.043333333333333335
endloop
endfacet
facet normal -1 0 0
outer loop
vertex 0.05 6 0.25666666666666665
vertex 0.05 3.904044011451988 0.043333333333333335
vertex 0.05 3.9040440114519885 0.25666666666666665
endloop
endfacet
facet normal -1 0 0
outer loop
vertex 0.05 6 0.043333333333333335
vertex 0.05 6 0.01919119770960239
vertex 0.05 3.783333333333333 0.019191197709602387
endloop
endfacet
facet normal -1 0 0
outer loop
vertex 0.05 6 0.043333333333333335
vertex 0.05 3.783333333333333 0.019191197709602387
vertex 0.05 3.904044011451988 0.043333333333333335
endloop
endfacet
facet normal -1 0 0
outer loop
vertex 0.05 6 0.01919119770960239
vertex 0.05 6 -0.4
vertex 0.05 2.2 -0.4
endloop
endfacet
facet normal -1 0 0
outer loop
vertex 0.05 6 0.01919119770960239
vertex 0.05 2.2 -0.4
vertex 0.05 2.2 0.019191197709602384
endloop
endfacet
facet normal 1 0 0
outer loop
vertex 0.9500000000000001 6 -0.4
vertex 0.9500000000000001 6 0.019191197709602443
vertex 0.9500000000000002 2.2 0.01919119770960237
endloop
endfacet
facet normal 1 0 0
outer loop
vertex 0.9500000000000001 6 -0.4
vertex 0.9500000000000002 2.2 0.01919119770960237
vertex 0.9500000000000001 2.2 -0.4
endloop
endfacet
facet normal 1 0 0
outer loop
vertex 0.9500000000000001 6 0.019191197709602443
vertex 0.9500000000000001 6 0.043333333333333335
vertex 0.9500000000000001 3.904044011451988 0.043333333333333335
endloop
endfacet
facet normal 1 0 0
outer loop
vertex 0.9500000000000001 6 0.019191197709602443
vertex 0.9500000000000001 3.904044011451988 0.043333333333333335
vertex 0.9500000000000001 3.783333333333333 0.019191197709602446
endloop
endfacet
facet normal 1 0 0
outer loop
vertex 0.9500000000000001 6 0.043333333333333335
vertex 0.9500000000000001 6 0.25666666666666665
vertex 0.9500000000000001 3.904044011451988 0.25666666666666665
endloop
endfacet
facet normal 1 0 0
outer loop
vertex 0.9500000000000001 6 0.043333333333333335
vertex 0.9500000000000001 3.904044011451988 0.25666666666666665
vertex 0.9500000000000001 3.904044011451988 0.043333333333333335
endloop
endfacet
facet normal 1 0 0
outer loop
vertex 0.9500000000000001 6 0.25666666666666665
vertex 0.9500000000000001 6 0.28080880229039756
vertex 0.9500000000000001 3.783333333333333 0.28080880229039756
endloop
endfacet
facet normal 1 0 0
outer loop
vertex 0.9500000000000001 6 0.25666666666666665
vertex 0.9500000000000001 3.783333333333333 0.28080880229039756
vertex 0.9500000000000001 3.904044011451988 0.25666666666666665
endloop
endfacet
facet normal 1 0 0
outer loop
vertex 0.9500000000000001 6 0.28080880229039756
vertex 0.9500000000000001 6 0.9999999999999999
vertex 0.9500000000000001 2.2 0.9999999999999999
endloop
endfacet
facet normal 1 0 0
outer loop
vertex 0.9500000000000001 6 0.28080880229039756
vertex 0.9500000000000001 2.2 0.9999999999999999
vertex 0.9500000000000002 2.2 0.2808088022903977
endloop
endfacet
facet normal 0 -1 0
outer loop
vertex 0.9500000000000001 2.2 -0.4
vertex 0.9500000000000001 2.2 -1.1102230246251565e-16
vertex 0.05 2.2 -1.1102230246251565e-16
endloop
endfacet
facet normal 0 -1 0
outer loop
vertex 0.9500000000000001 2.2 -0.4
vertex 0.05 2.2 -1.1102230246251565e-16
vertex 0.05 2.2 -0.4
endloop
endfacet
facet normal 0 -1 0
outer loop
vertex 0.21666666666666667 2.2 0
vertex 0.06346019740958136 2.2 0.012692039481916276
vertex 0.05 2.2 0.012692039481916285
endloop
endfacet
facet normal 0 -1 0
outer loop
vertex 0.21666666666666667 2.2 0
vertex 0.05 2.2 0.012692039481916285
vertex 0.05 2.2 -1.1102230246251565e-16
endloop
endfacet
facet normal 0 -1 0
outer loop
vertex 0.9500000000000001 2.2 -1.1102230246251565e-16
vertex 0.9500000000000001 2.2 0.012692039481916285
vertex 0.9365398025904186 2.2 0.012692039481916162
endloop
endfacet
facet normal 0 -1 0
outer loop
vertex 0.9500000000000001 2.2 -1.1102230246251565e-16
vertex 0.9365398025904186 2.2 0.012692039481916162
vertex 0.7833333333333333 2.2 0
endloop
endfacet
facet normal 0 -1 0
outer loop
vertex 0.06346019740958136 2.2 0.012692039481916276
vertex 0.05 2.2 0.019191197709602384
vertex 0.05 2.2 0.012692039481916285
endloop
endfacet
facet normal 0 -1 0
outer loop
vertex 0.9500000000000001 2.2 0.012692039481916285
vertex 0.9500000000000002 2.2 0.01919119770960237
vertex 0.9365398025904186 2.2 0.012692039481916162
endloop
endfacet
facet normal 0 -1 0
outer loop
vertex 0.06346019740958136 2.2 0.2873079605180837
vertex 0.05 2.2 0.2873079605180837
vertex 0.050000000000000044 2.2 0.2808088022903976
endloop
endfacet
facet normal 0 -1 0
outer loop
vertex 0.9500000000000001 2.2 0.2873079605180837
vertex 0.9365398025904186 2.2 0.2873079605180837
vertex 0.9500000000000002 2.2 0.2808088022903977
endloop
endfacet
facet normal 0 -1 0
outer loop
vertex 0.06346019740958136 2.2 0.2873079605180837
vertex 0.21666666666666667 2.2 0.30000000000000004
vertex 0.05 2.2 0.30000000000000004
endloop
endfacet
facet normal 0 -1 0
outer loop
vertex 0.06346019740958136 2.2 0.2873079605180837
vertex 0.05 2.2 0.30000000000000004
vertex 0.05 2.2 0.2873079605180837
endloop
endfacet
facet normal 0 -1 0
outer loop
vertex 0.9500000000000001 2.2 0.2873079605180837
vertex 0.9500000000000001 2.2 0.30000000000000004
vertex 0.7833333333333333 2.2 0.30000000000000004
endloop
endfacet
facet normal 0 -1 0
outer loop
vertex 0.9500000000000001 2.2 0.2873079605180837
vertex 0.7833333333333333 2.2 0.30000000000000004
vertex 0.9365398025904186 2.2 0.2873079605180837
endloop
endfacet
facet normal 0 -1 0
outer loop
vertex 0.9500000000000001 2.2 0.30000000000000004
vertex 0.9500000000000001 2.2 0.9999999999999999
vertex 0.05 2.2 0.9999999999999999
endloop
endfacet
facet normal 0 -1 0
outer loop
vertex 0.9500000000000001 2.2 0.30000000000000004
vertex 0.05 2.2 0.9999999999999999
vertex 0.05 2.2 0.30000000000000004
endloop
endfacet
facet normal 0 1 0
outer loop
vertex 0.05 6 -0.4
vertex 0.05 6 0.9999999999999999
vertex 0.9500000000000001 6 0.9999999999999999
endloop
endfacet
facet normal 0 1 0
outer loop
vertex 0.05 6 -0.4
vertex 0.9500000000000001 6 0.9999999999999999
vertex 0.9500000000000001 6 -0.4
endloop
endfacet
facet normal 0 0 -1
outer loop
vertex 0.05 2.2 -0.4
vertex 0.05 6 -0.4
vertex 0.9500000000000001 6 -0.4
endloop
endfacet
facet normal 0 0 -1
outer loop
vertex 0.05 2.2 -0.4
vertex 0.9500000000000001 6 -0.4
vertex 0.9500000000000001 2.2 -0.4
endloop
endfacet
facet normal 0 0 1
outer loop
vertex 0.05 2.2 0.9999999999999999
vertex 0.9500000000000001 2.2 0.9999999999999999
vertex 0.9500000000000001 6 0.9999999999999999
endloop
endfacet
facet normal 0 0 1
outer loop
vertex 0.05 2.2 0.9999999999999999
vertex 0.9500000000000001 6 0.9999999999999999
vertex 0.05 6 0.9999999999999999
endloop
endfacet
endsolid csg.js
